<svg width="218" height="39" viewBox="0 0 218 39" fill="none" xmlns="http://www.w3.org/2000/svg">
<path d="M6.384 20.216C5.008 20.216 3.936 19.928 3.168 19.352C2.416 18.776 1.888 18 1.584 17.024C1.296 16.048 1.152 14.96 1.152 13.76V6.896C1.152 5.584 1.296 4.44 1.584 3.464C1.888 2.488 2.416 1.736 3.168 1.208C3.936 0.663999 5.008 0.391999 6.384 0.391999C7.6 0.391999 8.56 0.615999 9.264 1.064C9.984 1.512 10.496 2.152 10.8 2.984C11.12 3.816 11.28 4.816 11.28 5.984V7.52H8.712V6.152C8.712 5.432 8.672 4.8 8.592 4.256C8.528 3.696 8.336 3.264 8.016 2.96C7.696 2.656 7.16 2.504 6.408 2.504C5.64 2.504 5.08 2.672 4.728 3.008C4.376 3.328 4.144 3.792 4.032 4.4C3.936 4.992 3.888 5.688 3.888 6.488V14.192C3.888 15.168 3.968 15.944 4.128 16.52C4.288 17.08 4.552 17.48 4.92 17.72C5.288 17.96 5.784 18.08 6.408 18.08C7.144 18.08 7.672 17.92 7.992 17.6C8.312 17.264 8.512 16.808 8.592 16.232C8.672 15.656 8.712 14.984 8.712 14.216V12.776H11.28V14.216C11.28 15.4 11.136 16.448 10.848 17.36C10.56 18.256 10.064 18.96 9.36 19.472C8.656 19.968 7.664 20.216 6.384 20.216ZM15.2076 20V8.048H12.6156V6.128H20.3916V8.048H17.7756V20H15.2076ZM21.9444 24.56V6.128H24.5124V7.232C24.8164 6.88 25.1844 6.576 25.6164 6.32C26.0484 6.064 26.5604 5.936 27.1524 5.936C27.8724 5.936 28.4404 6.128 28.8564 6.512C29.2884 6.88 29.6084 7.352 29.8164 7.928C30.0244 8.488 30.1604 9.064 30.2244 9.656C30.2884 10.232 30.3204 10.728 30.3204 11.144V14.504C30.3204 15.48 30.2244 16.408 30.0324 17.288C29.8404 18.152 29.4884 18.856 28.9764 19.4C28.4804 19.928 27.7764 20.192 26.8644 20.192C26.3684 20.192 25.9284 20.072 25.5444 19.832C25.1604 19.576 24.8164 19.288 24.5124 18.968V24.56H21.9444ZM26.3604 18.176C26.8084 18.176 27.1284 18.016 27.3204 17.696C27.5124 17.36 27.6324 16.912 27.6804 16.352C27.7284 15.792 27.7524 15.176 27.7524 14.504V11.144C27.7524 10.568 27.7204 10.04 27.6564 9.56C27.5924 9.064 27.4564 8.672 27.2484 8.384C27.0404 8.096 26.7124 7.952 26.2644 7.952C25.9284 7.952 25.6084 8.024 25.3044 8.168C25.0004 8.312 24.7364 8.48 24.5124 8.672V17.552C24.7524 17.728 25.0244 17.88 25.3284 18.008C25.6324 18.12 25.9764 18.176 26.3604 18.176ZM36.4714 20.192C35.4474 20.192 34.6394 19.984 34.0474 19.568C33.4554 19.152 33.0314 18.56 32.7754 17.792C32.5354 17.024 32.4154 16.12 32.4154 15.08V11.048C32.4154 10.008 32.5354 9.104 32.7754 8.336C33.0314 7.568 33.4554 6.976 34.0474 6.56C34.6394 6.144 35.4474 5.936 36.4714 5.936C37.4954 5.936 38.2954 6.144 38.8714 6.56C39.4634 6.976 39.8794 7.568 40.1194 8.336C40.3754 9.104 40.5034 10.008 40.5034 11.048V15.08C40.5034 16.12 40.3754 17.024 40.1194 17.792C39.8794 18.56 39.4634 19.152 38.8714 19.568C38.2954 19.984 37.4954 20.192 36.4714 20.192ZM36.4714 18.296C36.9674 18.296 37.3114 18.152 37.5034 17.864C37.7114 17.576 37.8314 17.2 37.8634 16.736C37.9114 16.256 37.9354 15.76 37.9354 15.248V10.904C37.9354 10.376 37.9114 9.88 37.8634 9.416C37.8314 8.952 37.7114 8.576 37.5034 8.288C37.3114 7.984 36.9674 7.832 36.4714 7.832C35.9754 7.832 35.6234 7.984 35.4154 8.288C35.2074 8.576 35.0794 8.952 35.0314 9.416C34.9994 9.88 34.9834 10.376 34.9834 10.904V15.248C34.9834 15.76 34.9994 16.256 35.0314 16.736C35.0794 17.2 35.2074 17.576 35.4154 17.864C35.6234 18.152 35.9754 18.296 36.4714 18.296ZM42.8507 20V6.128H45.0107V15.464L49.1867 6.128H51.2027V20H49.0907V10.592L44.9387 20H42.8507ZM47.0987 4.616C45.9467 4.616 45.1307 4.304 44.6507 3.68C44.1867 3.056 43.9547 2.28 43.9547 1.352H45.4427C45.4587 1.928 45.5867 2.376 45.8267 2.696C46.0827 3 46.5067 3.152 47.0987 3.152C47.7067 3.152 48.1307 2.992 48.3707 2.672C48.6267 2.352 48.7547 1.912 48.7547 1.352H50.2667C50.2667 2.28 50.0267 3.056 49.5467 3.68C49.0827 4.304 48.2667 4.616 47.0987 4.616ZM53.6994 13.736V11.792H59.0514V13.736H53.6994ZM60.4984 23.528V18.056H61.3864C61.6584 17.832 61.9224 17.56 62.1784 17.24C62.4504 16.92 62.6984 16.504 62.9224 15.992C63.1624 15.464 63.3784 14.792 63.5704 13.976C63.7624 13.144 63.9304 12.104 64.0744 10.856C64.2344 9.608 64.3544 8.096 64.4344 6.32L64.7464 0.559999H72.8824V18.056H74.7544V23.528H72.6664L72.4504 20H62.8024L62.5864 23.528H60.4984ZM63.9064 18.056H70.1944V2.576H67.0504L66.8584 6.968C66.7944 8.696 66.6904 10.152 66.5464 11.336C66.4184 12.504 66.2584 13.472 66.0664 14.24C65.8904 14.992 65.6824 15.608 65.4424 16.088C65.2184 16.552 64.9704 16.928 64.6984 17.216C64.4424 17.504 64.1784 17.784 63.9064 18.056ZM80.4173 20.192C79.3293 20.192 78.4893 19.984 77.8973 19.568C77.3053 19.136 76.8893 18.512 76.6493 17.696C76.4253 16.864 76.3133 15.848 76.3133 14.648V11.48C76.3133 10.248 76.4333 9.224 76.6733 8.408C76.9133 7.592 77.3293 6.976 77.9213 6.56C78.5293 6.144 79.3613 5.936 80.4173 5.936C81.5853 5.936 82.4413 6.176 82.9853 6.656C83.5453 7.136 83.9133 7.832 84.0893 8.744C84.2653 9.64 84.3533 10.72 84.3533 11.984V13.112H78.8813V15.896C78.8813 16.456 78.9293 16.912 79.0253 17.264C79.1373 17.616 79.3053 17.88 79.5293 18.056C79.7693 18.216 80.0733 18.296 80.4413 18.296C80.8253 18.296 81.1133 18.208 81.3053 18.032C81.5133 17.84 81.6493 17.576 81.7133 17.24C81.7933 16.888 81.8333 16.48 81.8333 16.016V15.176H84.3293V15.704C84.3293 17.096 84.0333 18.192 83.4413 18.992C82.8493 19.792 81.8413 20.192 80.4173 20.192ZM78.8813 11.72H81.8333V10.472C81.8333 9.896 81.8013 9.416 81.7373 9.032C81.6733 8.632 81.5373 8.336 81.3293 8.144C81.1373 7.936 80.8253 7.832 80.3933 7.832C79.9773 7.832 79.6573 7.928 79.4333 8.12C79.2253 8.312 79.0813 8.64 79.0013 9.104C78.9213 9.552 78.8813 10.176 78.8813 10.976V11.72ZM88.1451 20V8.048H85.5531V6.128H93.3291V8.048H90.7131V20H88.1451ZM97.3779 20.192C96.8339 20.192 96.3539 20.04 95.9379 19.736C95.5219 19.416 95.1939 19.016 94.9539 18.536C94.7139 18.04 94.5939 17.52 94.5939 16.976C94.5939 16.112 94.7379 15.384 95.0259 14.792C95.3139 14.2 95.7059 13.704 96.2019 13.304C96.7139 12.888 97.2979 12.528 97.9539 12.224C98.6259 11.92 99.3299 11.624 100.066 11.336V10.352C100.066 9.792 100.034 9.328 99.9699 8.96C99.9059 8.592 99.7699 8.32 99.5619 8.144C99.3699 7.952 99.0739 7.856 98.6739 7.856C98.3219 7.856 98.0339 7.936 97.8099 8.096C97.6019 8.256 97.4499 8.488 97.3539 8.792C97.2579 9.08 97.2099 9.424 97.2099 9.824V10.52L94.6659 10.424C94.6979 8.888 95.0499 7.76 95.7219 7.04C96.3939 6.304 97.4339 5.936 98.8419 5.936C100.218 5.936 101.194 6.312 101.77 7.064C102.346 7.816 102.634 8.904 102.634 10.328V16.664C102.634 17.096 102.642 17.512 102.658 17.912C102.69 18.312 102.722 18.688 102.754 19.04C102.802 19.376 102.842 19.696 102.874 20H100.522C100.474 19.744 100.41 19.424 100.33 19.04C100.266 18.64 100.218 18.28 100.186 17.96C100.026 18.504 99.7139 19.016 99.2499 19.496C98.8019 19.96 98.1779 20.192 97.3779 20.192ZM98.3859 17.984C98.6419 17.984 98.8819 17.912 99.1059 17.768C99.3299 17.624 99.5299 17.464 99.7059 17.288C99.8819 17.096 100.002 16.944 100.066 16.832V12.896C99.6659 13.12 99.2899 13.344 98.9379 13.568C98.5859 13.792 98.2739 14.032 98.0019 14.288C97.7459 14.528 97.5379 14.808 97.3779 15.128C97.2339 15.432 97.1619 15.784 97.1619 16.184C97.1619 16.744 97.2659 17.184 97.4739 17.504C97.6819 17.824 97.9859 17.984 98.3859 17.984ZM104.213 20.12V18.176C104.693 18.176 105.069 18.08 105.341 17.888C105.629 17.696 105.845 17.376 105.989 16.928C106.149 16.464 106.269 15.848 106.349 15.08C106.429 14.296 106.501 13.32 106.565 12.152L106.877 6.128H114.149V20H111.581V8.072H109.133L108.917 12.152C108.837 13.736 108.717 15.048 108.557 16.088C108.413 17.128 108.181 17.944 107.861 18.536C107.541 19.112 107.109 19.52 106.565 19.76C106.037 20 105.349 20.12 104.501 20.12H104.213ZM116.749 20V6.128H119.317V11.864C119.349 11.864 119.389 11.864 119.437 11.864C119.501 11.864 119.557 11.864 119.605 11.864C119.653 11.864 119.693 11.864 119.725 11.864C120.669 11.88 121.469 11.952 122.125 12.08C122.797 12.192 123.341 12.4 123.757 12.704C124.173 12.992 124.477 13.4 124.669 13.928C124.861 14.44 124.957 15.104 124.957 15.92C124.957 16.672 124.861 17.312 124.669 17.84C124.477 18.352 124.165 18.768 123.733 19.088C123.301 19.408 122.733 19.64 122.029 19.784C121.325 19.928 120.469 20 119.461 20H116.749ZM119.317 18.488H119.461C120.277 18.488 120.917 18.416 121.381 18.272C121.845 18.128 122.173 17.872 122.365 17.504C122.557 17.12 122.653 16.584 122.653 15.896C122.653 15.272 122.565 14.784 122.389 14.432C122.229 14.064 121.925 13.8 121.477 13.64C121.045 13.464 120.413 13.376 119.581 13.376C119.565 13.376 119.525 13.376 119.461 13.376C119.397 13.376 119.349 13.376 119.317 13.376V18.488ZM126.59 20V17.144H129.158V20H126.59ZM131.234 24.56V6.128H133.802V7.232C134.106 6.88 134.474 6.576 134.906 6.32C135.338 6.064 135.85 5.936 136.442 5.936C137.162 5.936 137.73 6.128 138.146 6.512C138.578 6.88 138.898 7.352 139.106 7.928C139.314 8.488 139.45 9.064 139.514 9.656C139.578 10.232 139.61 10.728 139.61 11.144V14.504C139.61 15.48 139.514 16.408 139.322 17.288C139.13 18.152 138.778 18.856 138.266 19.4C137.77 19.928 137.066 20.192 136.154 20.192C135.658 20.192 135.218 20.072 134.834 19.832C134.45 19.576 134.106 19.288 133.802 18.968V24.56H131.234ZM135.65 18.176C136.098 18.176 136.418 18.016 136.61 17.696C136.802 17.36 136.922 16.912 136.97 16.352C137.018 15.792 137.042 15.176 137.042 14.504V11.144C137.042 10.568 137.01 10.04 136.946 9.56C136.882 9.064 136.746 8.672 136.538 8.384C136.33 8.096 136.002 7.952 135.554 7.952C135.218 7.952 134.898 8.024 134.594 8.168C134.29 8.312 134.026 8.48 133.802 8.672V17.552C134.042 17.728 134.314 17.88 134.618 18.008C134.922 18.12 135.266 18.176 135.65 18.176ZM146.72 24.56V19.232H146.48C145.952 19.232 145.408 19.168 144.848 19.04C144.288 18.896 143.768 18.64 143.288 18.272C142.808 17.904 142.416 17.368 142.112 16.664C141.824 15.96 141.68 15.048 141.68 13.928V11.432C141.68 10.536 141.8 9.768 142.04 9.128C142.296 8.488 142.64 7.968 143.072 7.568C143.52 7.152 144.024 6.848 144.584 6.656C145.16 6.464 145.768 6.368 146.408 6.368H146.72V0.559999H149.096V6.368H149.504C150.352 6.368 151.128 6.544 151.832 6.896C152.536 7.232 153.096 7.776 153.512 8.528C153.944 9.264 154.16 10.232 154.16 11.432V13.928C154.16 15.048 154.016 15.96 153.728 16.664C153.44 17.368 153.056 17.904 152.576 18.272C152.112 18.64 151.6 18.896 151.04 19.04C150.496 19.168 149.96 19.232 149.432 19.232H149.096V24.56H146.72ZM146.552 17.408H146.72V8.048H146.48C145.984 8.048 145.552 8.128 145.184 8.288C144.816 8.448 144.528 8.744 144.32 9.176C144.112 9.608 144.008 10.232 144.008 11.048V13.904C144.008 14.832 144.104 15.552 144.296 16.064C144.488 16.56 144.776 16.912 145.16 17.12C145.544 17.312 146.008 17.408 146.552 17.408ZM149.096 17.408H149.24C149.8 17.408 150.272 17.312 150.656 17.12C151.04 16.912 151.328 16.56 151.52 16.064C151.728 15.552 151.832 14.832 151.832 13.904V11.048C151.832 10.232 151.728 9.608 151.52 9.176C151.312 8.744 151.016 8.448 150.632 8.288C150.264 8.128 149.824 8.048 149.312 8.048H149.096V17.408Z" fill="#2E3F65"/>
<path d="M8.07955 30H7.02273C6.96023 29.696 6.85085 29.429 6.6946 29.1989C6.54119 28.9688 6.35369 28.7756 6.1321 28.6193C5.91335 28.4602 5.67045 28.3409 5.40341 28.2614C5.13636 28.1818 4.85795 28.142 4.56818 28.142C4.03977 28.142 3.56108 28.2756 3.1321 28.5426C2.70597 28.8097 2.36648 29.2031 2.11364 29.723C1.86364 30.2429 1.73864 30.8807 1.73864 31.6364C1.73864 32.392 1.86364 33.0298 2.11364 33.5497C2.36648 34.0696 2.70597 34.4631 3.1321 34.7301C3.56108 34.9972 4.03977 35.1307 4.56818 35.1307C4.85795 35.1307 5.13636 35.0909 5.40341 35.0114C5.67045 34.9318 5.91335 34.8139 6.1321 34.6577C6.35369 34.4986 6.54119 34.304 6.6946 34.0739C6.85085 33.8409 6.96023 33.5739 7.02273 33.2727H8.07955C8 33.7187 7.85511 34.1179 7.64489 34.4702C7.43466 34.8224 7.1733 35.1222 6.8608 35.3693C6.5483 35.6136 6.19744 35.7997 5.80824 35.9276C5.42188 36.0554 5.00852 36.1193 4.56818 36.1193C3.82386 36.1193 3.16193 35.9375 2.58239 35.5739C2.00284 35.2102 1.54688 34.6932 1.21449 34.0227C0.882102 33.3523 0.715909 32.5568 0.715909 31.6364C0.715909 30.7159 0.882102 29.9205 1.21449 29.25C1.54688 28.5795 2.00284 28.0625 2.58239 27.6989C3.16193 27.3352 3.82386 27.1534 4.56818 27.1534C5.00852 27.1534 5.42188 27.2173 5.80824 27.3452C6.19744 27.473 6.5483 27.6605 6.8608 27.9077C7.1733 28.152 7.43466 28.4503 7.64489 28.8026C7.85511 29.152 8 29.5511 8.07955 30ZM9.27592 30.392V29.4545H14.5941V30.392H12.4464V36H11.4407V30.392H9.27592ZM16.0611 38.4545V29.4545H17.0327V30.4943H17.152C17.2259 30.3807 17.3281 30.2358 17.4588 30.0597C17.5923 29.8807 17.7827 29.7216 18.0298 29.5824C18.2798 29.4403 18.6179 29.3693 19.044 29.3693C19.5952 29.3693 20.081 29.5071 20.5014 29.7827C20.9219 30.0582 21.25 30.4489 21.4858 30.9545C21.7216 31.4602 21.8395 32.0568 21.8395 32.7443C21.8395 33.4375 21.7216 34.0384 21.4858 34.5469C21.25 35.0526 20.9233 35.4446 20.5057 35.723C20.0881 35.9986 19.6065 36.1364 19.0611 36.1364C18.6406 36.1364 18.304 36.0668 18.0511 35.9276C17.7983 35.7855 17.6037 35.625 17.4673 35.446C17.331 35.2642 17.2259 35.1136 17.152 34.9943H17.0668V38.4545H16.0611ZM17.0497 32.7273C17.0497 33.2216 17.1222 33.6577 17.267 34.0355C17.4119 34.4105 17.6236 34.7045 17.902 34.9176C18.1804 35.1278 18.5213 35.233 18.9247 35.233C19.3452 35.233 19.696 35.1222 19.9773 34.9006C20.2614 34.6761 20.4744 34.375 20.6165 33.9972C20.7614 33.6165 20.8338 33.1932 20.8338 32.7273C20.8338 32.267 20.7628 31.8523 20.6207 31.483C20.4815 31.1108 20.2699 30.8168 19.9858 30.6009C19.7045 30.3821 19.3509 30.2727 18.9247 30.2727C18.5156 30.2727 18.1719 30.3764 17.8935 30.5838C17.6151 30.7884 17.4048 31.0753 17.2628 31.4446C17.1207 31.8111 17.0497 32.2386 17.0497 32.7273ZM26.0327 36.1364C25.4418 36.1364 24.9233 35.9957 24.4773 35.7145C24.0341 35.4332 23.6875 35.0398 23.4375 34.5341C23.1903 34.0284 23.0668 33.4375 23.0668 32.7614C23.0668 32.0795 23.1903 31.4844 23.4375 30.9759C23.6875 30.4673 24.0341 30.0724 24.4773 29.7912C24.9233 29.5099 25.4418 29.3693 26.0327 29.3693C26.6236 29.3693 27.1406 29.5099 27.5838 29.7912C28.0298 30.0724 28.3764 30.4673 28.6236 30.9759C28.8736 31.4844 28.9986 32.0795 28.9986 32.7614C28.9986 33.4375 28.8736 34.0284 28.6236 34.5341C28.3764 35.0398 28.0298 35.4332 27.5838 35.7145C27.1406 35.9957 26.6236 36.1364 26.0327 36.1364ZM26.0327 35.233C26.4815 35.233 26.8509 35.1179 27.1406 34.8878C27.4304 34.6577 27.6449 34.3551 27.7841 33.9801C27.9233 33.6051 27.9929 33.1989 27.9929 32.7614C27.9929 32.3239 27.9233 31.9162 27.7841 31.5384C27.6449 31.1605 27.4304 30.8551 27.1406 30.6222C26.8509 30.3892 26.4815 30.2727 26.0327 30.2727C25.5838 30.2727 25.2145 30.3892 24.9247 30.6222C24.6349 30.8551 24.4205 31.1605 24.2812 31.5384C24.142 31.9162 24.0724 32.3239 24.0724 32.7614C24.0724 33.1989 24.142 33.6051 24.2812 33.9801C24.4205 34.3551 24.6349 34.6577 24.9247 34.8878C25.2145 35.1179 25.5838 35.233 26.0327 35.233ZM31.5394 34.517L34.6928 29.4545H35.8519V36H34.8462V30.9375L31.7099 36H30.5337V29.4545H31.5394V34.517ZM36.8033 30.392V29.4545H42.1214V30.392H39.9737V36H38.968V30.392H36.8033ZM45.9929 36.1364C45.3622 36.1364 44.8182 35.9972 44.3608 35.7188C43.9062 35.4375 43.5554 35.0455 43.3082 34.5426C43.0639 34.0369 42.9418 33.4489 42.9418 32.7784C42.9418 32.108 43.0639 31.517 43.3082 31.0057C43.5554 30.4915 43.8991 30.0909 44.3395 29.804C44.7827 29.5142 45.2997 29.3693 45.8906 29.3693C46.2315 29.3693 46.5682 29.4261 46.9006 29.5398C47.233 29.6534 47.5355 29.8381 47.8082 30.0938C48.081 30.3466 48.2983 30.6818 48.4602 31.0994C48.6222 31.517 48.7031 32.0312 48.7031 32.642V33.0682H43.6577V32.1989H47.6804C47.6804 31.8295 47.6065 31.5 47.4588 31.2102C47.3139 30.9205 47.1065 30.6918 46.8366 30.5241C46.5696 30.3565 46.2543 30.2727 45.8906 30.2727C45.4901 30.2727 45.1435 30.3722 44.8509 30.571C44.5611 30.767 44.3381 31.0227 44.1818 31.3381C44.0256 31.6534 43.9474 31.9915 43.9474 32.3523V32.9318C43.9474 33.4261 44.0327 33.8452 44.2031 34.1889C44.3764 34.5298 44.6165 34.7898 44.9233 34.9688C45.2301 35.1449 45.5866 35.233 45.9929 35.233C46.2571 35.233 46.4957 35.196 46.7088 35.1222C46.9247 35.0455 47.1108 34.9318 47.267 34.7812C47.4233 34.6278 47.544 34.4375 47.6293 34.2102L48.6009 34.483C48.4986 34.8125 48.3267 35.1023 48.0852 35.3523C47.8438 35.5994 47.5455 35.7926 47.1903 35.9318C46.8352 36.0682 46.4361 36.1364 45.9929 36.1364ZM49.6534 36V35.0625H49.892C50.0881 35.0625 50.2514 35.0241 50.3821 34.9474C50.5128 34.8679 50.6179 34.7301 50.6974 34.5341C50.7798 34.3352 50.8423 34.0597 50.8849 33.7074C50.9304 33.3523 50.9631 32.9006 50.983 32.3523L51.1023 29.4545H55.4659V36H54.4602V30.392H52.0568L51.9545 32.7273C51.9318 33.2642 51.8835 33.7372 51.8097 34.1463C51.7386 34.5526 51.6293 34.8935 51.4815 35.169C51.3366 35.4446 51.1435 35.652 50.902 35.7912C50.6605 35.9304 50.358 36 49.9943 36H49.6534ZM58.1804 31.8239H60.0554C60.8224 31.8239 61.4091 32.0185 61.8153 32.4077C62.2216 32.7969 62.4247 33.2898 62.4247 33.8864C62.4247 34.2784 62.3338 34.6349 62.152 34.956C61.9702 35.2741 61.7031 35.5284 61.3509 35.7188C60.9986 35.9062 60.5668 36 60.0554 36H57.3111V29.4545H58.3168V35.0625H60.0554C60.4531 35.0625 60.7798 34.9574 61.0355 34.7472C61.2912 34.5369 61.419 34.267 61.419 33.9375C61.419 33.5909 61.2912 33.3082 61.0355 33.0895C60.7798 32.8707 60.4531 32.7614 60.0554 32.7614H58.1804V31.8239ZM66.6147 36.1364C66.0011 36.1364 65.4727 35.9915 65.0295 35.7017C64.5863 35.4119 64.2454 35.0128 64.0067 34.5043C63.7681 33.9957 63.6488 33.4148 63.6488 32.7614C63.6488 32.0966 63.771 31.5099 64.0153 31.0014C64.2624 30.4901 64.6062 30.0909 65.0465 29.804C65.4897 29.5142 66.0067 29.3693 66.5977 29.3693C67.0579 29.3693 67.4727 29.4545 67.842 29.625C68.2113 29.7955 68.5138 30.0341 68.7496 30.3409C68.9854 30.6477 69.1317 31.0057 69.1886 31.4148H68.1829C68.1062 31.1165 67.9357 30.8523 67.6715 30.6222C67.4102 30.3892 67.0579 30.2727 66.6147 30.2727C66.2227 30.2727 65.8789 30.375 65.5835 30.5795C65.2908 30.7812 65.0621 31.0668 64.8974 31.4361C64.7354 31.8026 64.6545 32.233 64.6545 32.7273C64.6545 33.233 64.734 33.6733 64.8931 34.0483C65.055 34.4233 65.2823 34.7145 65.5749 34.9219C65.8704 35.1293 66.217 35.233 66.6147 35.233C66.8761 35.233 67.1133 35.1875 67.3263 35.0966C67.5394 35.0057 67.7198 34.875 67.8675 34.7045C68.0153 34.5341 68.1204 34.3295 68.1829 34.0909H69.1886C69.1317 34.4773 68.9911 34.8253 68.7667 35.1349C68.5451 35.4418 68.2511 35.6861 67.8846 35.8679C67.521 36.0469 67.0977 36.1364 66.6147 36.1364ZM70.1431 30.392V29.4545H75.4613V30.392H73.3136V36H72.3079V30.392H70.1431ZM76.9283 36V29.4545H79.6044C80.3089 29.4545 80.8686 29.6136 81.2834 29.9318C81.6982 30.25 81.9055 30.6705 81.9055 31.1932C81.9055 31.5909 81.7876 31.8991 81.5518 32.1179C81.3161 32.3338 81.0135 32.4801 80.6442 32.5568C80.8857 32.5909 81.12 32.6761 81.3473 32.8125C81.5774 32.9489 81.7678 33.1364 81.9183 33.375C82.0689 33.6108 82.1442 33.9006 82.1442 34.2443C82.1442 34.5795 82.0589 34.8793 81.8885 35.1435C81.718 35.4077 81.4737 35.6165 81.1555 35.7699C80.8374 35.9233 80.4567 36 80.0135 36H76.9283ZM77.8828 35.0795H80.0135C80.3601 35.0795 80.6314 34.9972 80.8274 34.8324C81.0234 34.6676 81.1214 34.4432 81.1214 34.1591C81.1214 33.821 81.0234 33.5554 80.8274 33.3622C80.6314 33.1662 80.3601 33.0682 80.0135 33.0682H77.8828V35.0795ZM77.8828 32.1989H79.6044C79.8743 32.1989 80.1058 32.1619 80.299 32.0881C80.4922 32.0114 80.6399 31.9034 80.7422 31.7642C80.8473 31.6222 80.8999 31.4545 80.8999 31.2614C80.8999 30.9858 80.7848 30.7699 80.5547 30.6136C80.3246 30.4545 80.0078 30.375 79.6044 30.375H77.8828V32.1989ZM86.3256 36.1364C85.7347 36.1364 85.2163 35.9957 84.7702 35.7145C84.3271 35.4332 83.9805 35.0398 83.7305 34.5341C83.4833 34.0284 83.3597 33.4375 83.3597 32.7614C83.3597 32.0795 83.4833 31.4844 83.7305 30.9759C83.9805 30.4673 84.3271 30.0724 84.7702 29.7912C85.2163 29.5099 85.7347 29.3693 86.3256 29.3693C86.9165 29.3693 87.4336 29.5099 87.8768 29.7912C88.3228 30.0724 88.6694 30.4673 88.9165 30.9759C89.1665 31.4844 89.2915 32.0795 89.2915 32.7614C89.2915 33.4375 89.1665 34.0284 88.9165 34.5341C88.6694 35.0398 88.3228 35.4332 87.8768 35.7145C87.4336 35.9957 86.9165 36.1364 86.3256 36.1364ZM86.3256 35.233C86.7745 35.233 87.1438 35.1179 87.4336 34.8878C87.7234 34.6577 87.9379 34.3551 88.0771 33.9801C88.2163 33.6051 88.2859 33.1989 88.2859 32.7614C88.2859 32.3239 88.2163 31.9162 88.0771 31.5384C87.9379 31.1605 87.7234 30.8551 87.4336 30.6222C87.1438 30.3892 86.7745 30.2727 86.3256 30.2727C85.8768 30.2727 85.5075 30.3892 85.2177 30.6222C84.9279 30.8551 84.7134 31.1605 84.5742 31.5384C84.435 31.9162 84.3654 32.3239 84.3654 32.7614C84.3654 33.1989 84.435 33.6051 84.5742 33.9801C84.7134 34.3551 84.9279 34.6577 85.2177 34.8878C85.5075 35.1179 85.8768 35.233 86.3256 35.233ZM94.2017 36V29.4545H95.2074V32.3011H95.8722L98.2244 29.4545H99.5199L96.8778 32.608L99.554 36H98.2585L96.1108 33.2386H95.2074V36H94.2017ZM102.573 36.1534C102.158 36.1534 101.782 36.0753 101.444 35.919C101.106 35.7599 100.837 35.5312 100.638 35.233C100.44 34.9318 100.34 34.5682 100.34 34.142C100.34 33.767 100.414 33.4631 100.562 33.2301C100.71 32.9943 100.907 32.8097 101.154 32.6761C101.401 32.5426 101.674 32.4432 101.972 32.3778C102.273 32.3097 102.576 32.2557 102.88 32.2159C103.278 32.1648 103.6 32.1264 103.847 32.1009C104.097 32.0724 104.279 32.0256 104.393 31.9602C104.509 31.8949 104.567 31.7812 104.567 31.6193V31.5852C104.567 31.1648 104.452 30.8381 104.222 30.6051C103.995 30.3722 103.65 30.2557 103.187 30.2557C102.707 30.2557 102.33 30.3608 102.058 30.571C101.785 30.7812 101.593 31.0057 101.482 31.2443L100.528 30.9034C100.698 30.5057 100.925 30.196 101.21 29.9744C101.496 29.75 101.809 29.5937 102.147 29.5057C102.488 29.4148 102.823 29.3693 103.153 29.3693C103.363 29.3693 103.604 29.3949 103.877 29.446C104.153 29.4943 104.418 29.5952 104.674 29.7486C104.933 29.902 105.147 30.1335 105.317 30.4432C105.488 30.7528 105.573 31.1676 105.573 31.6875V36H104.567V35.1136H104.516C104.448 35.2557 104.335 35.4077 104.175 35.5696C104.016 35.7315 103.805 35.8693 103.54 35.983C103.276 36.0966 102.954 36.1534 102.573 36.1534ZM102.727 35.25C103.124 35.25 103.46 35.1719 103.732 35.0156C104.008 34.8594 104.215 34.6577 104.354 34.4105C104.496 34.1634 104.567 33.9034 104.567 33.6307V32.7102C104.525 32.7614 104.431 32.8082 104.286 32.8509C104.144 32.8906 103.979 32.9261 103.792 32.9574C103.607 32.9858 103.427 33.0114 103.251 33.0341C103.077 33.054 102.937 33.071 102.829 33.0852C102.567 33.1193 102.323 33.1747 102.096 33.2514C101.871 33.3253 101.69 33.4375 101.55 33.5881C101.414 33.7358 101.346 33.9375 101.346 34.1932C101.346 34.5426 101.475 34.8068 101.734 34.9858C101.995 35.1619 102.326 35.25 102.727 35.25ZM112.454 29.4545V36H111.449V29.4545H112.454ZM112.062 32.5739V33.5114C111.835 33.5966 111.609 33.6719 111.385 33.7372C111.16 33.7997 110.924 33.8494 110.677 33.8864C110.43 33.9205 110.159 33.9375 109.863 33.9375C109.122 33.9375 108.527 33.7372 108.078 33.3366C107.632 32.9361 107.409 32.3352 107.409 31.5341V29.4375H108.414V31.5341C108.414 31.8693 108.478 32.1449 108.606 32.3608C108.734 32.5767 108.907 32.7372 109.126 32.8423C109.345 32.9474 109.591 33 109.863 33C110.289 33 110.674 32.9616 111.018 32.8849C111.365 32.8054 111.713 32.7017 112.062 32.5739ZM117.044 36.1364C116.413 36.1364 115.869 35.9972 115.412 35.7188C114.957 35.4375 114.606 35.0455 114.359 34.5426C114.115 34.0369 113.993 33.4489 113.993 32.7784C113.993 32.108 114.115 31.517 114.359 31.0057C114.606 30.4915 114.95 30.0909 115.39 29.804C115.833 29.5142 116.35 29.3693 116.941 29.3693C117.282 29.3693 117.619 29.4261 117.951 29.5398C118.284 29.6534 118.586 29.8381 118.859 30.0938C119.132 30.3466 119.349 30.6818 119.511 31.0994C119.673 31.517 119.754 32.0312 119.754 32.642V33.0682H114.708V32.1989H118.731C118.731 31.8295 118.657 31.5 118.51 31.2102C118.365 30.9205 118.157 30.6918 117.887 30.5241C117.62 30.3565 117.305 30.2727 116.941 30.2727C116.541 30.2727 116.194 30.3722 115.902 30.571C115.612 30.767 115.389 31.0227 115.233 31.3381C115.076 31.6534 114.998 31.9915 114.998 32.3523V32.9318C114.998 33.4261 115.083 33.8452 115.254 34.1889C115.427 34.5298 115.667 34.7898 115.974 34.9688C116.281 35.1449 116.637 35.233 117.044 35.233C117.308 35.233 117.547 35.196 117.76 35.1222C117.975 35.0455 118.162 34.9318 118.318 34.7812C118.474 34.6278 118.595 34.4375 118.68 34.2102L119.652 34.483C119.549 34.8125 119.377 35.1023 119.136 35.3523C118.895 35.5994 118.596 35.7926 118.241 35.9318C117.886 36.0682 117.487 36.1364 117.044 36.1364ZM123.943 36.1364C123.329 36.1364 122.801 35.9915 122.358 35.7017C121.914 35.4119 121.574 35.0128 121.335 34.5043C121.096 33.9957 120.977 33.4148 120.977 32.7614C120.977 32.0966 121.099 31.5099 121.343 31.0014C121.591 30.4901 121.934 30.0909 122.375 29.804C122.818 29.5142 123.335 29.3693 123.926 29.3693C124.386 29.3693 124.801 29.4545 125.17 29.625C125.539 29.7955 125.842 30.0341 126.078 30.3409C126.314 30.6477 126.46 31.0057 126.517 31.4148H125.511C125.434 31.1165 125.264 30.8523 125 30.6222C124.738 30.3892 124.386 30.2727 123.943 30.2727C123.551 30.2727 123.207 30.375 122.912 30.5795C122.619 30.7812 122.39 31.0668 122.225 31.4361C122.064 31.8026 121.983 32.233 121.983 32.7273C121.983 33.233 122.062 33.6733 122.221 34.0483C122.383 34.4233 122.61 34.7145 122.903 34.9219C123.199 35.1293 123.545 35.233 123.943 35.233C124.204 35.233 124.441 35.1875 124.654 35.0966C124.868 35.0057 125.048 34.875 125.196 34.7045C125.343 34.5341 125.449 34.3295 125.511 34.0909H126.517C126.46 34.4773 126.319 34.8253 126.095 35.1349C125.873 35.4418 125.579 35.6861 125.213 35.8679C124.849 36.0469 124.426 36.1364 123.943 36.1364ZM127.471 30.392V29.4545H132.789V30.392H130.642V36H129.636V30.392H127.471ZM134.256 36V29.4545H136.933C137.637 29.4545 138.197 29.6136 138.612 29.9318C139.026 30.25 139.234 30.6705 139.234 31.1932C139.234 31.5909 139.116 31.8991 138.88 32.1179C138.644 32.3338 138.342 32.4801 137.972 32.5568C138.214 32.5909 138.448 32.6761 138.675 32.8125C138.906 32.9489 139.096 33.1364 139.246 33.375C139.397 33.6108 139.472 33.9006 139.472 34.2443C139.472 34.5795 139.387 34.8793 139.217 35.1435C139.046 35.4077 138.802 35.6165 138.484 35.7699C138.165 35.9233 137.785 36 137.342 36H134.256ZM135.211 35.0795H137.342C137.688 35.0795 137.96 34.9972 138.156 34.8324C138.352 34.6676 138.45 34.4432 138.45 34.1591C138.45 33.821 138.352 33.5554 138.156 33.3622C137.96 33.1662 137.688 33.0682 137.342 33.0682H135.211V35.0795ZM135.211 32.1989H136.933C137.202 32.1989 137.434 32.1619 137.627 32.0881C137.82 32.0114 137.968 31.9034 138.07 31.7642C138.175 31.6222 138.228 31.4545 138.228 31.2614C138.228 30.9858 138.113 30.7699 137.883 30.6136C137.653 30.4545 137.336 30.375 136.933 30.375H135.211V32.1989ZM143.739 36.1364C143.108 36.1364 142.564 35.9972 142.107 35.7188C141.652 35.4375 141.301 35.0455 141.054 34.5426C140.81 34.0369 140.688 33.4489 140.688 32.7784C140.688 32.108 140.81 31.517 141.054 31.0057C141.301 30.4915 141.645 30.0909 142.086 29.804C142.529 29.5142 143.046 29.3693 143.637 29.3693C143.978 29.3693 144.314 29.4261 144.647 29.5398C144.979 29.6534 145.282 29.8381 145.554 30.0938C145.827 30.3466 146.044 30.6818 146.206 31.0994C146.368 31.517 146.449 32.0312 146.449 32.642V33.0682H141.404V32.1989H145.426C145.426 31.8295 145.353 31.5 145.205 31.2102C145.06 30.9205 144.853 30.6918 144.583 30.5241C144.316 30.3565 144 30.2727 143.637 30.2727C143.236 30.2727 142.89 30.3722 142.597 30.571C142.307 30.767 142.084 31.0227 141.928 31.3381C141.772 31.6534 141.694 31.9915 141.694 32.3523V32.9318C141.694 33.4261 141.779 33.8452 141.949 34.1889C142.123 34.5298 142.363 34.7898 142.669 34.9688C142.976 35.1449 143.333 35.233 143.739 35.233C144.003 35.233 144.242 35.196 144.455 35.1222C144.671 35.0455 144.857 34.9318 145.013 34.7812C145.169 34.6278 145.29 34.4375 145.375 34.2102L146.347 34.483C146.245 34.8125 146.073 35.1023 145.831 35.3523C145.59 35.5994 145.292 35.7926 144.936 35.9318C144.581 36.0682 144.182 36.1364 143.739 36.1364ZM152.36 32.267V33.2045H148.746V32.267H152.36ZM148.985 29.4545V36H147.979V29.4545H148.985ZM153.127 29.4545V36H152.121V29.4545H153.127ZM159.344 32.267V33.2045H155.73V32.267H159.344ZM155.969 29.4545V36H154.963V29.4545H155.969ZM160.111 29.4545V36H159.105V29.4545H160.111ZM162.817 31.8239H164.692C165.459 31.8239 166.046 32.0185 166.452 32.4077C166.858 32.7969 167.061 33.2898 167.061 33.8864C167.061 34.2784 166.971 34.6349 166.789 34.956C166.607 35.2741 166.34 35.5284 165.988 35.7188C165.635 35.9062 165.203 36 164.692 36H161.948V29.4545H162.953V35.0625H164.692C165.09 35.0625 165.417 34.9574 165.672 34.7472C165.928 34.5369 166.056 34.267 166.056 33.9375C166.056 33.5909 165.928 33.3082 165.672 33.0895C165.417 32.8707 165.09 32.7614 164.692 32.7614H162.817V31.8239ZM168.101 36V29.4545H169.107V36H168.101ZM171.698 29.4545L173.266 32.1307L174.834 29.4545H175.993L173.88 32.7273L175.993 36H174.834L173.266 33.4602L171.698 36H170.539L172.618 32.7273L170.539 29.4545H171.698ZM180.104 37.875V35.0625H180.65C180.783 34.9233 180.898 34.7727 180.995 34.6108C181.092 34.4489 181.175 34.2571 181.246 34.0355C181.32 33.8111 181.383 33.5384 181.434 33.2173C181.485 32.8935 181.531 32.5028 181.57 32.0455L181.792 29.4545H185.951V35.0625H186.957V37.875H185.951V36H181.11V37.875H180.104ZM181.792 35.0625H184.945V30.392H182.729L182.559 32.0455C182.488 32.7301 182.4 33.3281 182.295 33.8395C182.19 34.3509 182.022 34.7585 181.792 35.0625ZM190.951 36.1364C190.36 36.1364 189.841 35.9957 189.395 35.7145C188.952 35.4332 188.605 35.0398 188.355 34.5341C188.108 34.0284 187.985 33.4375 187.985 32.7614C187.985 32.0795 188.108 31.4844 188.355 30.9759C188.605 30.4673 188.952 30.0724 189.395 29.7912C189.841 29.5099 190.36 29.3693 190.951 29.3693C191.542 29.3693 192.059 29.5099 192.502 29.7912C192.948 30.0724 193.294 30.4673 193.542 30.9759C193.792 31.4844 193.917 32.0795 193.917 32.7614C193.917 33.4375 193.792 34.0284 193.542 34.5341C193.294 35.0398 192.948 35.4332 192.502 35.7145C192.059 35.9957 191.542 36.1364 190.951 36.1364ZM190.951 35.233C191.4 35.233 191.769 35.1179 192.059 34.8878C192.348 34.6577 192.563 34.3551 192.702 33.9801C192.841 33.6051 192.911 33.1989 192.911 32.7614C192.911 32.3239 192.841 31.9162 192.702 31.5384C192.563 31.1605 192.348 30.8551 192.059 30.6222C191.769 30.3892 191.4 30.2727 190.951 30.2727C190.502 30.2727 190.132 30.3892 189.843 30.6222C189.553 30.8551 189.338 31.1605 189.199 31.5384C189.06 31.9162 188.99 32.3239 188.99 32.7614C188.99 33.1989 189.06 33.6051 189.199 33.9801C189.338 34.3551 189.553 34.6577 189.843 34.8878C190.132 35.1179 190.502 35.233 190.951 35.233ZM199.031 34.6364L201.315 29.4545H202.27L199.44 36H198.622L195.844 29.4545H196.781L199.031 34.6364ZM196.457 29.4545V36H195.452V29.4545H196.457ZM201.605 36V29.4545H202.611V36H201.605ZM207.111 36.1364C206.52 36.1364 206.001 35.9957 205.555 35.7145C205.112 35.4332 204.766 35.0398 204.516 34.5341C204.268 34.0284 204.145 33.4375 204.145 32.7614C204.145 32.0795 204.268 31.4844 204.516 30.9759C204.766 30.4673 205.112 30.0724 205.555 29.7912C206.001 29.5099 206.52 29.3693 207.111 29.3693C207.702 29.3693 208.219 29.5099 208.662 29.7912C209.108 30.0724 209.455 30.4673 209.702 30.9759C209.952 31.4844 210.077 32.0795 210.077 32.7614C210.077 33.4375 209.952 34.0284 209.702 34.5341C209.455 35.0398 209.108 35.4332 208.662 35.7145C208.219 35.9957 207.702 36.1364 207.111 36.1364ZM207.111 35.233C207.56 35.233 207.929 35.1179 208.219 34.8878C208.509 34.6577 208.723 34.3551 208.862 33.9801C209.001 33.6051 209.071 33.1989 209.071 32.7614C209.071 32.3239 209.001 31.9162 208.862 31.5384C208.723 31.1605 208.509 30.8551 208.219 30.6222C207.929 30.3892 207.56 30.2727 207.111 30.2727C206.662 30.2727 206.293 30.3892 206.003 30.6222C205.713 30.8551 205.499 31.1605 205.359 31.5384C205.22 31.9162 205.151 32.3239 205.151 32.7614C205.151 33.1989 205.22 33.6051 205.359 33.9801C205.499 34.3551 205.713 34.6577 206.003 34.8878C206.293 35.1179 206.662 35.233 207.111 35.233ZM211.612 36V29.4545H214.288C214.993 29.4545 215.552 29.6136 215.967 29.9318C216.382 30.25 216.589 30.6705 216.589 31.1932C216.589 31.5909 216.471 31.8991 216.235 32.1179C216 32.3338 215.697 32.4801 215.328 32.5568C215.569 32.5909 215.804 32.6761 216.031 32.8125C216.261 32.9489 216.451 33.1364 216.602 33.375C216.752 33.6108 216.828 33.9006 216.828 34.2443C216.828 34.5795 216.743 34.8793 216.572 35.1435C216.402 35.4077 216.157 35.6165 215.839 35.7699C215.521 35.9233 215.14 36 214.697 36H211.612ZM212.566 35.0795H214.697C215.044 35.0795 215.315 34.9972 215.511 34.8324C215.707 34.6676 215.805 34.4432 215.805 34.1591C215.805 33.821 215.707 33.5554 215.511 33.3622C215.315 33.1662 215.044 33.0682 214.697 33.0682H212.566V35.0795ZM212.566 32.1989H214.288C214.558 32.1989 214.789 32.1619 214.983 32.0881C215.176 32.0114 215.324 31.9034 215.426 31.7642C215.531 31.6222 215.583 31.4545 215.583 31.2614C215.583 30.9858 215.468 30.7699 215.238 30.6136C215.008 30.4545 214.691 30.375 214.288 30.375H212.566V32.1989Z" fill="#2E3F65"/>
</svg>
